Coordinates
version=1
nRows=30
nColumns=38
inDegrees=no

Units are S.I. units (second, meters, Newtons, ...)
If the header above contains a line with 'inDegrees', this indicates whether rotational values are in degrees (yes) or radians (no).

endheader
time	pelvis_tilt	pelvis_list	pelvis_rotation	pelvis_tx	pelvis_ty	pelvis_tz	hip_flexion_r	hip_adduction_r	hip_rotation_r	knee_angle_r	ankle_angle_r	subtalar_angle_r	mtp_angle_r	hip_flexion_l	hip_adduction_l	hip_rotation_l	knee_angle_l	ankle_angle_l	subtalar_angle_l	mtp_angle_l	lumbar_extension	lumbar_bending	lumbar_rotation	arm_flex_r	arm_add_r	arm_rot_r	elbow_flex_r	pro_sup_r	wrist_flex_r	wrist_dev_r	arm_flex_l	arm_add_l	arm_rot_l	elbow_flex_l	pro_sup_l	wrist_flex_l	wrist_dev_l
1.66	-0.229438	-0.0243369	-0.0394183	0.755174	0.952038	-0.315308	0.322518	0.0730837	-0.0834803	-0.784963	0.381041	0.010744	0.00797773	0.932389	-0.0447699	-0.0784828	-2.12899	0.114166	0.0208734	0.012112	-0.0214097	0.106484	0.0356666	-0.00474031	-0.368713	0.132368	1.7775	1.41041	0.0451735	-0.0432545	-0.59804	-0.557689	0.308279	1.77847	1.32902	-0.00973252	0.0262223
1.67	-0.239983	-0.0139117	-0.0409857	0.756677	0.958151	-0.31497	0.270125	0.058879	-0.0875052	-0.737738	0.306104	0.010744	0.00797773	0.981688	-0.0365478	-0.0919214	-2.06091	0.122041	0.0208734	0.012112	-0.0042702	0.0902641	0.0522078	0.00110311	-0.356476	0.127743	1.8082	1.42902	0.0451735	-0.0432545	-0.645405	-0.558192	0.296165	1.80349	1.2999	-0.00973252	0.0262223
1.68	-0.248819	-0.00373158	-0.0424442	0.758703	0.96474	-0.314498	0.219353	0.044672	-0.0938283	-0.692375	0.220305	0.010744	0.00797773	1.01963	-0.0316	-0.107664	-1.98037	0.129162	0.0208734	0.012112	0.0117471	0.073611	0.0677663	0.00238024	-0.34488	0.123835	1.83867	1.44222	0.0451735	-0.0432545	-0.693291	-0.556932	0.280593	1.8299	1.27364	-0.00973252	0.0262223
1.69	-0.255798	0.00568362	-0.043136	0.761099	0.971511	-0.31393	0.171482	0.0312653	-0.102271	-0.651849	0.128607	0.010744	0.00797773	1.04606	-0.0291069	-0.124194	-1.88831	0.135608	0.0208734	0.012112	0.0262996	0.0571802	0.0813785	2.24746e-05	-0.334258	0.121475	1.86765	1.44931	0.0451735	-0.0432545	-0.740799	-0.553714	0.261917	1.85625	1.25185	-0.00973252	0.0262223
1.7	-0.260933	0.0138633	-0.0424127	0.763709	0.978182	-0.313308	0.127548	0.0194866	-0.1122	-0.61889	0.0367843	0.010744	0.00797773	1.0611	-0.0279385	-0.13994	-1.78552	0.141291	0.0208734	0.012112	0.0391442	0.0415441	0.0921548	-0.00511976	-0.324867	0.121139	1.89408	1.45043	0.0451735	-0.0432545	-0.786879	-0.54858	0.240906	1.88144	1.23539	-0.00973252	0.0262223
1.71	-0.26431	0.0205355	-0.0397458	0.766394	0.984524	-0.312691	0.0882868	0.0101018	-0.12261	-0.595833	-0.049211	0.010744	0.00797773	1.06514	-0.0267848	-0.153355	-1.67261	0.145919	0.0208734	0.012112	0.0501193	0.0271678	0.0994144	-0.0123263	-0.316865	0.122935	1.91708	1.44663	0.0451735	-0.0432545	-0.830373	-0.541809	0.218655	1.90473	1.22441	-0.00973252	0.0262223
1.72	-0.266003	0.0256239	-0.0348138	0.769049	0.990368	-0.312123	0.0541153	0.00362934	-0.132358	-0.584504	-0.124058	0.010744	0.00797773	1.05874	-0.0243129	-0.163029	-1.55026	0.148991	0.0208734	0.012112	0.0591008	0.0143407	0.10279	-0.0210338	-0.310302	0.126627	1.93598	1.43971	0.0451735	-0.0432545	-0.87007	-0.533892	0.196442	1.92574	1.21835	-0.00973252	0.0262223
1.73	-0.266057	0.0292439	-0.0275627	0.771611	0.995579	-0.311657	0.0251549	0.000145626	-0.140579	-0.586193	-0.183863	0.010744	0.00797773	1.04259	-0.019359	-0.167866	-1.4195	0.149863	0.0208734	0.012112	0.0659372	0.00314269	0.102273	-0.0308431	-0.30511	0.131709	1.9503	1.43192	0.0451735	-0.0432545	-0.904801	-0.525471	0.175562	1.94438	1.21619	-0.00973252	0.0262223
1.74	-0.264445	0.0316843	-0.0182203	0.774047	1.00005	-0.31136	0.00128226	-0.00086108	-0.147091	-0.601689	-0.226697	0.010744	0.00797773	1.01751	-0.0111426	-0.167309	-1.28201	0.147867	0.0208734	0.012112	0.0704033	-0.00654563	0.0982037	-0.0415048	-0.301123	0.137523	1.95973	1.4254	0.0451735	-0.0432545	-0.933524	-0.517268	0.157161	1.96073	1.2166	-0.00973252	0.0262223
1.75	-0.261013	0.0333754	-0.00726108	0.776344	1.00368	-0.311312	-0.0177973	-0.000512134	-0.152577	-0.631326	-0.252698	0.010744	0.00797773	0.984472	0.000552064	-0.161583	-1.14044	0.142482	0.0208734	0.012112	0.0721944	-0.0150008	0.0912036	-0.0528849	-0.298101	0.143398	1.96414	1.42172	0.0451735	-0.0432545	-0.955417	-0.510008	0.142113	1.97507	1.2183	-0.00973252	0.0262223
1.76	-0.255524	0.0348976	0.00467389	0.778499	1.00643	-0.311585	-0.0324698	-0.000372104	-0.158389	-0.675035	-0.263697	0.010744	0.00797773	0.944722	0.0152958	-0.151848	-0.998537	0.1335	0.0208734	0.012112	0.070956	-0.0225747	0.0820663	-0.0649178	-0.295773	0.148804	1.96359	1.42141	0.0451735	-0.0432545	-0.969938	-0.504361	0.130939	1.98773	1.22024	-0.00973252	0.0262223
1.77	-0.247815	0.0367806	0.0168633	0.780497	1.00825	-0.312204	-0.043133	-0.00216446	-0.16599	-0.732355	-0.262527	0.010744	0.00797773	0.899807	0.0321241	-0.140146	-0.861118	0.12116	0.0208734	0.012112	0.0663454	-0.0296736	0.0716135	-0.0775564	-0.293881	0.15344	1.95827	1.4239	0.0451735	-0.0432545	-0.976846	-0.500883	0.123803	1.99909	1.22176	-0.00973252	0.0262223
1.78	-0.237822	0.0394262	0.0286132	0.782298	1.00912	-0.313116	-0.05004	-0.0073888	-0.176336	-0.802436	-0.252295	0.010744	0.00797773	0.85168	0.0497521	-0.129088	-0.73377	0.106237	0.0208734	0.012112	0.0581989	-0.0366856	0.0605661	-0.0907249	-0.292224	0.157274	1.94844	1.42773	0.0451735	-0.0432545	-0.976196	-0.499975	0.120559	2.00951	1.2226	-0.00973252	0.0262223
1.79	-0.225669	0.0430782	0.0393295	0.783852	1.009	-0.314227	-0.0531902	-0.0169704	-0.189434	-0.884052	-0.235845	0.010744	0.00797773	0.802648	0.0668399	-0.121302	-0.622323	0.0900903	0.0208734	0.012112	0.046627	-0.0439077	0.0494555	-0.104282	-0.29068	0.160513	1.93441	1.43101	0.0451735	-0.0432545	-0.968287	-0.50185	0.120824	2.01928	1.22284	-0.00973252	0.0262223
1.8	-0.211706	0.047801	0.0485562	0.785096	1.00787	-0.31541	-0.0522552	-0.031076	-0.204265	-0.975659	-0.215499	0.010744	0.00797773	0.755186	0.0822554	-0.118797	-0.532188	0.0746827	0.0208734	0.012112	0.0320542	-0.0515111	0.0385845	-0.118007	-0.289214	0.163508	1.91644	1.43192	0.0451735	-0.0432545	-0.953591	-0.506513	0.12407	2.02858	1.22287	-0.00973252	0.0262223
1.81	-0.196536	0.0534913	0.055993	0.785962	1.00574	-0.316531	-0.0465488	-0.0491111	-0.219034	-1.07548	-0.193017	0.010744	0.00797773	0.711687	0.0952596	-0.12244	-0.467678	0.0625459	0.0208734	0.012112	0.0152025	-0.0595369	0.0280286	-0.131609	-0.287858	0.166649	1.89474	1.42933	0.0451735	-0.0432545	-0.932669	-0.513777	0.129723	2.03742	1.2233	-0.00973252	0.0262223
1.82	-0.181045	0.0598258	0.0614998	0.786358	1.00257	-0.317473	-0.0350697	-0.0698845	-0.231586	-1.18157	-0.169687	0.010744	0.00797773	0.674164	0.105601	-0.131721	-0.431447	0.0566307	0.0208734	0.012112	-0.00298602	-0.0679519	0.0176692	-0.144766	-0.286682	0.170264	1.8694	1.423	0.0451735	-0.0432545	-0.906089	-0.523293	0.137245	2.0457	1.22487	-0.00973252	0.0262223
1.83	-0.166195	0.0664367	0.0650973	0.786228	0.998317	-0.318187	-0.0165629	-0.0917889	-0.239837	-1.29188	-0.146452	0.010744	0.00797773	0.644054	0.113458	-0.144911	-0.424084	0.0599843	0.0208734	0.012112	-0.0213884	-0.0766284	0.00724477	-0.157191	-0.285766	0.174534	1.8405	1.41372	0.0451735	-0.0432545	-0.874359	-0.534596	0.146207	2.05313	1.22843	-0.00973252	0.0262223
1.84	-0.153015	0.0730001	0.066965	0.785541	0.992945	-0.318678	0.0103172	-0.113058	-0.242149	-1.40428	-0.124005	0.010744	0.00797773	0.622029	0.11931	-0.159581	-0.443934	0.0752275	0.0208734	0.012112	-0.038828	-0.0853529	-0.00359309	-0.168691	-0.285175	0.179465	1.80817	1.40302	0.0451735	-0.0432545	-0.837884	-0.547146	0.156309	2.05933	1.2347	-0.00973252	0.0262223
1.85	-0.14249	0.0792195	0.0673961	0.784283	0.986492	-0.318967	0.0467847	-0.132038	-0.237564	-1.51653	-0.102845	0.010744	0.00797773	0.60785	0.123796	-0.173309	-0.487111	0.103882	0.0208734	0.012112	-0.05422	-0.0938962	-0.0152096	-0.17923	-0.284956	0.184882	1.77266	1.39279	0.0451735	-0.0432545	-0.796962	-0.560365	0.167367	2.06386	1.24408	-0.00973252	0.0262223
1.86	-0.135401	0.0848522	0.0667365	0.782429	0.979135	-0.319061	0.0936568	-0.147388	-0.225861	-1.62626	-0.0832868	0.010744	0.00797773	0.600303	0.127544	-0.184269	-0.54779	0.145776	0.0208734	0.012112	-0.0667221	-0.102054	-0.0278995	-0.188969	-0.285132	0.190469	1.73451	1.38476	0.0451735	-0.0432545	-0.751818	-0.573677	0.179263	2.06628	1.25653	-0.00973252	0.0262223
1.87	-0.132129	0.0896904	0.0653116	0.779969	0.971283	-0.318961	0.151099	-0.158177	-0.207498	-1.73098	-0.0654221	0.010744	0.00797773	0.59726	0.131018	-0.191521	-0.61879	0.198794	0.0208734	0.012112	-0.0758515	-0.109671	-0.0418105	-0.198286	-0.285732	0.195835	1.69463	1.37994	0.0451735	-0.0432545	-0.702681	-0.586534	0.191881	2.06631	1.27155	-0.00973252	0.0262223
1.88	-0.132531	0.0936449	0.0633883	0.776986	0.963465	-0.318636	0.218415	-0.163871	-0.183506	-1.82807	-0.0491074	0.010744	0.00797773	0.595868	0.134366	-0.194922	-0.692405	0.259128	0.0208734	0.012112	-0.081564	-0.116527	-0.0569032	-0.207751	-0.286828	0.200613	1.65436	1.37826	0.0451735	-0.0432545	-0.649911	-0.598437	0.205037	2.0639	1.28829	-0.00973252	0.0262223
1.89	-0.136028	0.0966062	0.0611467	0.773619	0.956228	-0.318109	0.293916	-0.164279	-0.155383	-1.91483	-0.0339961	0.010744	0.00797773	0.592812	0.13736	-0.194846	-0.76132	0.321934	0.0208734	0.012112	-0.0843225	-0.122287	-0.0729758	-0.218063	-0.288573	0.20455	1.61544	1.37857	0.0451735	-0.0432545	-0.594126	-0.608945	0.218427	2.05942	1.30562	-0.00973252	0.0262223
1.9	-0.141595	0.0983611	0.058698	0.770034	0.950057	-0.31744	0.374991	-0.159535	-0.124998	-1.98867	-0.0196289	0.010744	0.00797773	0.58471	0.139432	-0.191894	-0.819384	0.382082	0.0208734	0.012112	-0.0849877	-0.126451	-0.0897428	-0.229933	-0.291231	0.207568	1.57989	1.37899	0.0451735	-0.0432545	-0.536294	-0.617667	0.231614	2.0537	1.32224	-0.00973252	0.0262223
1.91	-0.147933	0.098589	0.0561257	0.766422	0.945358	-0.316695	0.45835	-0.150119	-0.0944771	-2.04728	-0.0055541	0.010744	0.00797773	0.568527	0.139772	-0.186725	-0.86209	0.43475	0.0208734	0.012112	-0.0846465	-0.128373	-0.106936	-0.243969	-0.295163	0.209768	1.54973	1.37753	0.0451735	-0.0432545	-0.477757	-0.624266	0.244053	2.04802	1.33676	-0.00973252	0.0262223
1.92	-0.153721	0.096891	0.053529	0.763007	0.942459	-0.315916	0.540432	-0.136893	-0.066048	-2.0888	0.00856564	0.010744	0.00797773	0.541971	0.137502	-0.179995	-0.886727	0.475748	0.0208734	0.012112	-0.08437	-0.127356	-0.124389	-0.260572	-0.300764	0.211363	1.52675	1.37276	0.0451735	-0.0432545	-0.420151	-0.628473	0.255148	2.04395	1.3479	-0.00973252	0.0262223
1.93	-0.157871	0.0928776	0.051057	0.760029	0.941581	-0.315145	0.61785	-0.121054	-0.0418307	-2.11202	0.0228951	0.010744	0.00797773	0.503788	0.131847	-0.172376	-0.892282	0.501655	0.0208734	0.012112	-0.0849717	-0.122781	-0.142069	-0.279888	-0.308366	0.21255	1.51218	1.36431	0.0451735	-0.0432545	-0.365262	-0.630136	0.264335	2.04308	1.35485	-0.00973252	0.0262223
1.94	-0.159727	0.0862616	0.0489123	0.757713	0.942807	-0.314411	0.687783	-0.104	-0.0236152	-2.1164	0.0374139	0.010744	0.00797773	0.453911	0.122262	-0.164605	-0.879203	0.509889	0.0208734	0.012112	-0.0868432	-0.114222	-0.160052	-0.301837	-0.318135	0.213364	1.50649	1.35309	0.0451735	-0.0432545	-0.314823	-0.629277	0.271151	2.0468	1.35763	-0.00973252	0.0262223
1.95	-0.159126	0.0769143	0.0473279	0.756219	0.946089	-0.313743	0.748206	-0.0871188	-0.0126686	-2.1021	0.0519253	0.010744	0.00797773	0.393437	0.108509	-0.157543	-0.849149	0.498805	0.0208734	0.012112	-0.0899091	-0.101532	-0.178444	-0.326175	-0.329985	0.213546	1.50943	1.34113	0.0451735	-0.0432545	-0.270299	-0.626156	0.27533	2.05607	1.35718	-0.00973252	0.0262223
